<svg width="114" height="161" viewBox="0 0 114 161" fill="none" xmlns="http://www.w3.org/2000/svg">
<path d="M108.2 8.2H106.8V12.9H106V8.2H104.5V7.5H108.3L108.2 8.2ZM114.1 12.8H113.3V8.3L111.9 12.8H111.1L109.7 8.3V12.8H108.9V7.5H110.2L111.5 11.8L112.8 7.5H114.1V12.8ZM49.0999 76.6L97.3999 34.6V89.5L49.0999 131.5L0.79995 89.5V0L49.0999 42L97.3999 0V20.3L49.0999 62.3L16.5999 34.1V82.9L49.0999 111.1L81.5999 82.9V68.7L49.0999 96.9L27.7 78.3V58L49.0999 76.6ZM10.6 150.3L7.79995 150.7C7.69995 149.1 7.09995 148.5 5.49995 148.5C3.89995 148.5 3.19995 149.5 3.19995 151.2V155.7C3.19995 157.4 3.89995 158.5 5.49995 158.5C7.49995 158.5 7.99995 157.8 7.99995 155.7V155.2H5.39995V152.8H10.6V155.8C10.6 159.7 8.39995 161 5.39995 161C2.29995 161 0.199951 159.4 0.199951 156V151C0.199951 147.6 2.39995 146 5.39995 146C8.79995 146.1 10.3 147.1 10.6 150.3ZM16 146.2V155.8C16 157.6 16.5 158.5 18.2999 158.5C20.0999 158.5 20.5999 157.6 20.5999 155.8V146.2H23.5V156C23.5 159.4 21.6 161 18.4 161C15.1 161 13.2999 159.4 13.2999 156V146.2H16ZM34.7999 146.2L34.4 148.8H28.9V152H32.9V154.6H28.9V158.4H34.4L34.7999 160.9H26V146.2H34.7999ZM64.5 146.2V160.9H61.5999V146.2H64.5ZM70.2 146.2V158.4H75.7L76.0999 160.9H67.3V146.2H70.2ZM80.3999 146.2V158.4H85.8999L86.3 160.9H77.5V146.2H80.3999ZM41.9 146.2C45.4 146.2 46.7999 147.4 46.7999 150.2V151.4C46.7999 153 46.3 154.3 44.4 155L47.4 160.9H44.4L41.5999 155.4H39.9V160.9H37V146.2H41.9ZM39.9 153H42C43.5 153 44.0999 152.6 44.0999 151.2V150.5C44.0999 149.1 43.5999 148.7 42 148.7H39.9V153ZM54.1999 146.2C57.6999 146.2 59.0999 147.4 59.0999 150.2V151.4C59.0999 153 58.5999 154.3 56.6999 155L59.6999 160.9H56.6999L53.9 155.4H52.1999V160.9H49.3V146.2H54.1999ZM52.1999 153H54.3C55.8 153 56.4 152.6 56.4 151.2V150.5C56.4 149.1 55.9 148.7 54.3 148.7H52.1999V153ZM94.5 146.2L98.5999 160.9H95.7L94.8999 157.8H90.8999L90.0999 160.9H87.3L91.3999 146.2H94.5ZM91.3999 155.4H94.3999L92.8999 149.8L91.3999 155.4Z" fill="black"/>
</svg>
